<svg aria-roledescription="flowchart-v2" role="graphics-document document" viewBox="0 0 1501.16015625 1140.796875" style="max-width: 1501.16015625px;" class="flowchart" xmlns="http://www.w3.org/2000/svg" width="100%" id="gx"><style>#gx{font-size:16px;fill:#1c1a17;}#gx .error-icon{fill:hsl(180, 0%, 100%);}#gx .error-text{fill:rgb(0, 0, 0);stroke:rgb(0, 0, 0);}#gx .edge-thickness-normal{stroke-width:1px;}#gx .edge-thickness-thick{stroke-width:3.5px;}#gx .edge-pattern-solid{stroke-dasharray:0;}#gx .edge-thickness-invisible{stroke-width:0;fill:none;}#gx .edge-pattern-dashed{stroke-dasharray:3;}#gx .edge-pattern-dotted{stroke-dasharray:2;}#gx .marker{fill:#6d675e;stroke:#6d675e;}#gx .marker.cross{stroke:#6d675e;}#gx svg{font-size:16px;}#gx p{margin:0;}#gx .label{color:#1c1a17;}#gx .cluster-label text{fill:rgb(0, 0, 0);}#gx .cluster-label span{color:rgb(0, 0, 0);}#gx .cluster-label span p{background-color:transparent;}#gx .label text,#gx span{fill:#1c1a17;color:#1c1a17;}#gx .node rect,#gx .node circle,#gx .node ellipse,#gx .node polygon,#gx .node path{fill:#ffffff;stroke:#e4e0d8;stroke-width:1px;}#gx .rough-node .label text,#gx .node .label text,#gx .image-shape .label,#gx .icon-shape .label{text-anchor:middle;}#gx .node .katex path{fill:#000;stroke:#000;stroke-width:1px;}#gx .rough-node .label,#gx .node .label,#gx .image-shape .label,#gx .icon-shape .label{text-align:center;}#gx .node.clickable{cursor:pointer;}#gx .root .anchor path{fill:#6d675e!important;stroke-width:0;stroke:#6d675e;}#gx .arrowheadPath{fill:#040507;}#gx .edgePath .path{stroke:#6d675e;stroke-width:2.0px;}#gx .flowchart-link{stroke:#6d675e;fill:none;}#gx .edgeLabel{background-color:hsl(-120, 0%, 100%);text-align:center;}#gx .edgeLabel p{background-color:hsl(-120, 0%, 100%);}#gx .edgeLabel rect{opacity:0.5;background-color:hsl(-120, 0%, 100%);fill:hsl(-120, 0%, 100%);}#gx .labelBkg{background-color:rgba(255, 255, 255, 0.5);}#gx .cluster rect{fill:#fbfaf8;stroke:#e4e0d8;stroke-width:1px;}#gx .cluster text{fill:rgb(0, 0, 0);}#gx .cluster span{color:rgb(0, 0, 0);}#gx div.mermaidTooltip{position:absolute;text-align:center;max-width:200px;padding:2px;font-size:12px;background:hsl(180, 0%, 100%);border:1px solid hsl(180, 0%, 90%);border-radius:2px;pointer-events:none;z-index:100;}#gx .flowchartTitleText{text-anchor:middle;font-size:18px;fill:#1c1a17;}#gx rect.text{fill:none;stroke-width:0;}#gx .icon-shape,#gx .image-shape{background-color:hsl(-120, 0%, 100%);text-align:center;}#gx .icon-shape p,#gx .image-shape p{background-color:hsl(-120, 0%, 100%);padding:2px;}#gx .icon-shape rect,#gx .image-shape rect{opacity:0.5;background-color:hsl(-120, 0%, 100%);fill:hsl(-120, 0%, 100%);}#gx :root{--mermaid-font-family:"trebuchet ms",verdana,arial,sans-serif;}#gx .tinta&gt;*{fill:#1c1a17!important;color:#fbfaf8!important;stroke:#1c1a17!important;}#gx .tinta span{fill:#1c1a17!important;color:#fbfaf8!important;stroke:#1c1a17!important;}#gx .tinta tspan{fill:#fbfaf8!important;}#gx .leitura&gt;*{stroke-dasharray:4 3!important;}#gx .leitura span{stroke-dasharray:4 3!important;}</style><g><marker orient="auto" markerHeight="8" markerWidth="8" markerUnits="userSpaceOnUse" refY="5" refX="5" viewBox="0 0 10 10" class="marker flowchart-v2" id="gx_flowchart-v2-pointEnd"><path style="stroke-width: 1; stroke-dasharray: 1, 0;" class="arrowMarkerPath" d="M 0 0 L 10 5 L 0 10 z"></path></marker><marker orient="auto" markerHeight="8" markerWidth="8" markerUnits="userSpaceOnUse" refY="5" refX="4.5" viewBox="0 0 10 10" class="marker flowchart-v2" id="gx_flowchart-v2-pointStart"><path style="stroke-width: 1; stroke-dasharray: 1, 0;" class="arrowMarkerPath" d="M 0 5 L 10 10 L 10 0 z"></path></marker><marker orient="auto" markerHeight="11" markerWidth="11" markerUnits="userSpaceOnUse" refY="5" refX="11" viewBox="0 0 10 10" class="marker flowchart-v2" id="gx_flowchart-v2-circleEnd"><circle style="stroke-width: 1; stroke-dasharray: 1, 0;" class="arrowMarkerPath" r="5" cy="5" cx="5"></circle></marker><marker orient="auto" markerHeight="11" markerWidth="11" markerUnits="userSpaceOnUse" refY="5" refX="-1" viewBox="0 0 10 10" class="marker flowchart-v2" id="gx_flowchart-v2-circleStart"><circle style="stroke-width: 1; stroke-dasharray: 1, 0;" class="arrowMarkerPath" r="5" cy="5" cx="5"></circle></marker><marker orient="auto" markerHeight="11" markerWidth="11" markerUnits="userSpaceOnUse" refY="5.2" refX="12" viewBox="0 0 11 11" class="marker cross flowchart-v2" id="gx_flowchart-v2-crossEnd"><path style="stroke-width: 2; stroke-dasharray: 1, 0;" class="arrowMarkerPath" d="M 1,1 l 9,9 M 10,1 l -9,9"></path></marker><marker orient="auto" markerHeight="11" markerWidth="11" markerUnits="userSpaceOnUse" refY="5.2" refX="-1" viewBox="0 0 11 11" class="marker cross flowchart-v2" id="gx_flowchart-v2-crossStart"><path style="stroke-width: 2; stroke-dasharray: 1, 0;" class="arrowMarkerPath" d="M 1,1 l 9,9 M 10,1 l -9,9"></path></marker><g class="root"><g class="clusters"></g><g class="edgePaths"><path marker-end="url(#gx_flowchart-v2-pointEnd)" style="" class="edge-thickness-normal edge-pattern-solid edge-thickness-normal edge-pattern-solid flowchart-link" id="L_evento_despachante_0" d="M576.039,110L576.039,114.167C576.039,118.333,576.039,126.667,576.039,134.333C576.039,142,576.039,149,576.039,152.5L576.039,156"></path><path marker-end="url(#gx_flowchart-v2-pointEnd)" style="" class="edge-thickness-normal edge-pattern-solid edge-thickness-normal edge-pattern-solid flowchart-link" id="L_despachante_curador_1" d="M446.039,267.143L392.211,280.453C338.383,293.762,230.727,320.381,176.898,346.357C123.07,372.333,123.07,397.667,123.07,423C123.07,448.333,123.07,473.667,123.07,491.833C123.07,510,123.07,521,123.07,526.5L123.07,532"></path><path marker-end="url(#gx_flowchart-v2-pointEnd)" style="" class="edge-thickness-normal edge-pattern-solid edge-thickness-normal edge-pattern-solid flowchart-link" id="L_despachante_guardiao_2" d="M456.738,310L446.929,316.167C437.12,322.333,417.501,334.667,407.692,353.5C397.883,372.333,397.883,397.667,397.883,423C397.883,448.333,397.883,473.667,397.883,491.833C397.883,510,397.883,521,397.883,526.5L397.883,532"></path><path marker-end="url(#gx_flowchart-v2-pointEnd)" style="" class="edge-thickness-normal edge-pattern-solid edge-thickness-normal edge-pattern-solid flowchart-link" id="L_despachante_atendimento_3" d="M706.039,302.657L720.24,310.048C734.44,317.438,762.841,332.219,777.042,345.11C791.242,358,791.242,369,791.242,374.5L791.242,380"></path><path marker-end="url(#gx_flowchart-v2-pointEnd)" style="" class="edge-thickness-normal edge-pattern-solid edge-thickness-normal edge-pattern-solid flowchart-link" id="L_despachante_alterador_4" d="M706.039,254.469L809.016,269.891C911.993,285.313,1117.948,316.156,1220.925,344.245C1323.902,372.333,1323.902,397.667,1323.902,423C1323.902,448.333,1323.902,473.667,1323.902,491.833C1323.902,510,1323.902,521,1323.902,526.5L1323.902,532"></path><path marker-end="url(#gx_flowchart-v2-pointEnd)" style="" class="edge-thickness-normal edge-pattern-solid edge-thickness-normal edge-pattern-solid flowchart-link" id="L_atendimento_roteador_5" d="M731.431,462L721.974,468.167C712.517,474.333,693.602,486.667,684.145,498.333C674.688,510,674.688,521,674.688,526.5L674.688,532"></path><path marker-end="url(#gx_flowchart-v2-pointEnd)" marker-start="url(#gx_flowchart-v2-pointStart)" style="" class="edge-thickness-normal edge-pattern-dotted edge-thickness-normal edge-pattern-solid flowchart-link" id="L_curador_gate_6" d="M116.359,617.952L115.811,621.46C115.263,624.968,114.167,631.984,167.712,657.068C221.257,682.152,329.444,725.305,383.537,746.881L437.631,768.457"></path><path marker-end="url(#gx_flowchart-v2-pointEnd)" marker-start="url(#gx_flowchart-v2-pointStart)" style="" class="edge-thickness-normal edge-pattern-dotted edge-thickness-normal edge-pattern-solid flowchart-link" id="L_guardiao_gate_7" d="M316.67,615.796L308.971,619.663C301.272,623.53,285.874,631.265,308.545,654.146C331.215,677.027,391.953,715.054,422.323,734.067L452.692,753.08"></path><path marker-end="url(#gx_flowchart-v2-pointEnd)" marker-start="url(#gx_flowchart-v2-pointStart)" style="" class="edge-thickness-normal edge-pattern-dotted edge-thickness-normal edge-pattern-solid flowchart-link" id="L_roteador_gate_8" d="M592.862,615.784L585.1,619.654C577.337,623.523,561.811,631.261,554.118,638.714C546.426,646.167,546.566,653.334,546.636,656.917L546.707,660.501"></path><path marker-end="url(#gx_flowchart-v2-pointEnd)" marker-start="url(#gx_flowchart-v2-pointStart)" style="" class="edge-thickness-normal edge-pattern-dotted edge-thickness-normal edge-pattern-solid flowchart-link" id="L_alterador_gate_9" d="M1258.897,616.139L1252.876,619.949C1246.856,623.759,1234.815,631.38,1136.352,658.852C1037.89,686.324,853.007,733.648,760.565,757.31L668.124,780.972"></path><path marker-end="url(#gx_flowchart-v2-pointEnd)" marker-start="url(#gx_flowchart-v2-pointStart)" style="" class="edge-thickness-normal edge-pattern-dotted edge-thickness-normal edge-pattern-solid flowchart-link" id="L_atendimento_gate_10" d="M824.807,465.128L829.305,470.774C833.802,476.419,842.798,487.709,847.295,506.021C851.793,524.333,851.793,549.667,851.793,573C851.793,596.333,851.793,617.667,817.242,647.958C782.692,678.25,713.591,717.501,679.04,737.126L644.49,756.751"></path><path marker-end="url(#gx_flowchart-v2-pointEnd)" style="" class="edge-thickness-normal edge-pattern-solid edge-thickness-normal edge-pattern-solid flowchart-link" id="L_curador_banco_11" d="M200.708,614L209.003,618.167C217.298,622.333,233.887,630.667,345.331,659.184C456.774,687.701,663.071,736.401,766.22,760.752L869.369,785.102"></path><path marker-end="url(#gx_flowchart-v2-pointEnd)" style="" class="edge-thickness-normal edge-pattern-solid edge-thickness-normal edge-pattern-solid flowchart-link" id="L_guardiao_banco_12" d="M476.128,614L484.488,618.167C492.847,622.333,509.566,630.667,575.132,656.534C640.697,682.4,755.11,725.801,812.316,747.501L869.522,769.201"></path><path marker-end="url(#gx_flowchart-v2-pointEnd)" style="" class="edge-thickness-normal edge-pattern-solid edge-thickness-normal edge-pattern-solid flowchart-link" id="L_roteador_banco_13" d="M730.186,614L736.115,618.167C742.044,622.333,753.903,630.667,781.187,652.919C808.47,675.17,851.179,711.341,872.533,729.426L893.887,747.511"></path><path marker-end="url(#gx_flowchart-v2-pointEnd)" style="" class="edge-thickness-normal edge-pattern-solid edge-thickness-normal edge-pattern-solid flowchart-link" id="L_atendimento_banco_14" d="M896.313,444.528L940.622,453.607C984.931,462.685,1073.549,480.843,1117.859,502.588C1162.168,524.333,1162.168,549.667,1162.168,573C1162.168,596.333,1162.168,617.667,1144.196,646.047C1126.224,674.427,1090.28,709.854,1072.308,727.567L1054.336,745.281"></path><path marker-end="url(#gx_flowchart-v2-pointEnd)" style="" class="edge-thickness-normal edge-pattern-solid edge-thickness-normal edge-pattern-solid flowchart-link" id="L_alterador_banco_15" d="M1323.902,614L1323.902,618.167C1323.902,622.333,1323.902,630.667,1285.208,656.87C1246.514,683.073,1169.126,727.146,1130.432,749.182L1091.738,771.218"></path><path marker-end="url(#gx_flowchart-v2-pointEnd)" style="" class="edge-thickness-normal edge-pattern-solid edge-thickness-normal edge-pattern-solid flowchart-link" id="L_consulta_banco_16" d="M1006.98,614L1006.98,618.167C1006.98,622.333,1006.98,630.667,1004.415,651.717C1001.849,672.767,996.717,706.535,994.151,723.419L991.585,740.302"></path><path style="" class="edge-thickness-invisible edge-pattern-solid" id="L_banco_base_20" d="M980.762,878.612L980.762,896.143C980.762,913.673,980.762,948.735,980.762,970.433C980.762,992.13,980.762,1000.464,980.762,1004.63L980.762,1008.797"></path></g><g class="edgeLabels"><g class="edgeLabel"><g transform="translate(0, 0)" class="label"><foreignObject height="0" width="0"><div style="display: table-cell; white-space: nowrap; line-height: 1.5; max-width: 200px; text-align: center;" class="labelBkg" xmlns="http://www.w3.org/1999/xhtml"><span class="edgeLabel"></span></div></foreignObject></g></g><g transform="translate(123.0703125, 423)" class="edgeLabel"><g transform="translate(-17.7734375, -12)" class="label"><foreignObject height="24" width="35.546875"><div style="display: table-cell; white-space: nowrap; line-height: 1.5; max-width: 200px; text-align: center;" class="labelBkg" xmlns="http://www.w3.org/1999/xhtml"><span class="edgeLabel"><p>laudo</p></span></div></foreignObject></g></g><g transform="translate(397.8828125, 423)" class="edgeLabel"><g transform="translate(-35.546875, -12)" class="label"><foreignObject height="24" width="71.09375"><div style="display: table-cell; white-space: nowrap; line-height: 1.5; max-width: 200px; text-align: center;" class="labelBkg" xmlns="http://www.w3.org/1999/xhtml"><span class="edgeLabel"><p>documento</p></span></div></foreignObject></g></g><g transform="translate(791.2421875, 347)" class="edgeLabel"><g transform="translate(-34.2109375, -12)" class="label"><foreignObject height="24" width="68.421875"><div style="display: table-cell; white-space: nowrap; line-height: 1.5; max-width: 200px; text-align: center;" class="labelBkg" xmlns="http://www.w3.org/1999/xhtml"><span class="edgeLabel"><p>mensagem</p></span></div></foreignObject></g></g><g transform="translate(1323.90234375, 423)" class="edgeLabel"><g transform="translate(-62.1875, -12)" class="label"><foreignObject height="24" width="124.375"><div style="display: table-cell; white-space: nowrap; line-height: 1.5; max-width: 200px; text-align: center;" class="labelBkg" xmlns="http://www.w3.org/1999/xhtml"><span class="edgeLabel"><p>pedido de alteração</p></span></div></foreignObject></g></g><g transform="translate(674.6875, 499)" class="edgeLabel"><g transform="translate(-51.3125, -12)" class="label"><foreignObject height="24" width="102.625"><div style="display: table-cell; white-space: nowrap; line-height: 1.5; max-width: 200px; text-align: center;" class="labelBkg" xmlns="http://www.w3.org/1999/xhtml"><span class="edgeLabel"><p>lead qualificado</p></span></div></foreignObject></g></g><g class="edgeLabel"><g transform="translate(0, 0)" class="label"><foreignObject height="0" width="0"><div style="display: table-cell; white-space: nowrap; line-height: 1.5; max-width: 200px; text-align: center;" class="labelBkg" xmlns="http://www.w3.org/1999/xhtml"><span class="edgeLabel"></span></div></foreignObject></g></g><g class="edgeLabel"><g transform="translate(0, 0)" class="label"><foreignObject height="0" width="0"><div style="display: table-cell; white-space: nowrap; line-height: 1.5; max-width: 200px; text-align: center;" class="labelBkg" xmlns="http://www.w3.org/1999/xhtml"><span class="edgeLabel"></span></div></foreignObject></g></g><g class="edgeLabel"><g transform="translate(0, 0)" class="label"><foreignObject height="0" width="0"><div style="display: table-cell; white-space: nowrap; line-height: 1.5; max-width: 200px; text-align: center;" class="labelBkg" xmlns="http://www.w3.org/1999/xhtml"><span class="edgeLabel"></span></div></foreignObject></g></g><g class="edgeLabel"><g transform="translate(0, 0)" class="label"><foreignObject height="0" width="0"><div style="display: table-cell; white-space: nowrap; line-height: 1.5; max-width: 200px; text-align: center;" class="labelBkg" xmlns="http://www.w3.org/1999/xhtml"><span class="edgeLabel"></span></div></foreignObject></g></g><g class="edgeLabel"><g transform="translate(0, 0)" class="label"><foreignObject height="0" width="0"><div style="display: table-cell; white-space: nowrap; line-height: 1.5; max-width: 200px; text-align: center;" class="labelBkg" xmlns="http://www.w3.org/1999/xhtml"><span class="edgeLabel"></span></div></foreignObject></g></g><g class="edgeLabel"><g transform="translate(0, 0)" class="label"><foreignObject height="0" width="0"><div style="display: table-cell; white-space: nowrap; line-height: 1.5; max-width: 200px; text-align: center;" class="labelBkg" xmlns="http://www.w3.org/1999/xhtml"><span class="edgeLabel"></span></div></foreignObject></g></g><g class="edgeLabel"><g transform="translate(0, 0)" class="label"><foreignObject height="0" width="0"><div style="display: table-cell; white-space: nowrap; line-height: 1.5; max-width: 200px; text-align: center;" class="labelBkg" xmlns="http://www.w3.org/1999/xhtml"><span class="edgeLabel"></span></div></foreignObject></g></g><g class="edgeLabel"><g transform="translate(0, 0)" class="label"><foreignObject height="0" width="0"><div style="display: table-cell; white-space: nowrap; line-height: 1.5; max-width: 200px; text-align: center;" class="labelBkg" xmlns="http://www.w3.org/1999/xhtml"><span class="edgeLabel"></span></div></foreignObject></g></g><g class="edgeLabel"><g transform="translate(0, 0)" class="label"><foreignObject height="0" width="0"><div style="display: table-cell; white-space: nowrap; line-height: 1.5; max-width: 200px; text-align: center;" class="labelBkg" xmlns="http://www.w3.org/1999/xhtml"><span class="edgeLabel"></span></div></foreignObject></g></g><g class="edgeLabel"><g transform="translate(0, 0)" class="label"><foreignObject height="0" width="0"><div style="display: table-cell; white-space: nowrap; line-height: 1.5; max-width: 200px; text-align: center;" class="labelBkg" xmlns="http://www.w3.org/1999/xhtml"><span class="edgeLabel"></span></div></foreignObject></g></g><g class="edgeLabel"><g transform="translate(0, 0)" class="label"><foreignObject height="0" width="0"><div style="display: table-cell; white-space: nowrap; line-height: 1.5; max-width: 200px; text-align: center;" class="labelBkg" xmlns="http://www.w3.org/1999/xhtml"><span class="edgeLabel"></span></div></foreignObject></g></g><g class="edgeLabel"><g transform="translate(0, 0)" class="label"><foreignObject height="0" width="0"><div style="display: table-cell; white-space: nowrap; line-height: 1.5; max-width: 200px; text-align: center;" class="labelBkg" xmlns="http://www.w3.org/1999/xhtml"><span class="edgeLabel"></span></div></foreignObject></g></g></g><g class="nodes"><g transform="translate(460.36328125, 1000.796875)" class="root"><g class="clusters"><g data-look="classic" id="base" class="cluster"><rect height="124" width="1024.796875" y="8" x="8" style=""></rect><g transform="translate(453.9609375, 8)" class="cluster-label"><foreignObject height="24" width="132.875"><div style="display: table-cell; white-space: nowrap; line-height: 1.5; max-width: 200px; text-align: center;" xmlns="http://www.w3.org/1999/xhtml"><span class="nodeLabel"><p>Base comum a todos</p></span></div></foreignObject></g></g></g><g class="edgePaths"><path style="" class="edge-thickness-invisible edge-pattern-solid" id="L_faixa_contrato_17" d="M195.25,70L201.5,70C207.75,70,220.25,70,232.75,70C245.25,70,257.75,70,264,70L270.25,70"></path><path style="" class="edge-thickness-invisible edge-pattern-solid" id="L_contrato_modo_18" d="M452,70L458.25,70C464.5,70,477,70,489.5,70C502,70,514.5,70,520.75,70L527,70"></path><path style="" class="edge-thickness-invisible edge-pattern-solid" id="L_modo_porta_19" d="M715.875,70L722.125,70C728.375,70,740.875,70,753.375,70C765.875,70,778.375,70,784.625,70L790.875,70"></path></g><g class="edgeLabels"><g class="edgeLabel"><g transform="translate(0, 0)" class="label"><foreignObject height="0" width="0"><div style="display: table-cell; white-space: nowrap; line-height: 1.5; max-width: 200px; text-align: center;" class="labelBkg" xmlns="http://www.w3.org/1999/xhtml"><span class="edgeLabel"></span></div></foreignObject></g></g><g class="edgeLabel"><g transform="translate(0, 0)" class="label"><foreignObject height="0" width="0"><div style="display: table-cell; white-space: nowrap; line-height: 1.5; max-width: 200px; text-align: center;" class="labelBkg" xmlns="http://www.w3.org/1999/xhtml"><span class="edgeLabel"></span></div></foreignObject></g></g><g class="edgeLabel"><g transform="translate(0, 0)" class="label"><foreignObject height="0" width="0"><div style="display: table-cell; white-space: nowrap; line-height: 1.5; max-width: 200px; text-align: center;" class="labelBkg" xmlns="http://www.w3.org/1999/xhtml"><span class="edgeLabel"></span></div></foreignObject></g></g></g><g class="nodes"><g transform="translate(120.375, 70)" id="flowchart-faixa-27" class="node default"><rect height="54" width="149.75" y="-27" x="-74.875" style="" class="basic label-container"></rect><g transform="translate(-44.875, -12)" style="" class="label"><rect></rect><foreignObject height="24" width="89.75"><div style="display: table-cell; white-space: nowrap; line-height: 1.5; max-width: 200px; text-align: center;" xmlns="http://www.w3.org/1999/xhtml"><span class="nodeLabel"><p>Faixa de risco</p></span></div></foreignObject></g></g><g transform="translate(361.125, 70)" id="flowchart-contrato-28" class="node default"><rect height="54" width="181.75" y="-27" x="-90.875" style="" class="basic label-container"></rect><g transform="translate(-60.875, -12)" style="" class="label"><rect></rect><foreignObject height="24" width="121.75"><div style="display: table-cell; white-space: nowrap; line-height: 1.5; max-width: 200px; text-align: center;" xmlns="http://www.w3.org/1999/xhtml"><span class="nodeLabel"><p>Contrato do agente</p></span></div></foreignObject></g></g><g transform="translate(621.4375, 70)" id="flowchart-modo-29" class="node default"><rect height="54" width="188.875" y="-27" x="-94.4375" style="" class="basic label-container"></rect><g transform="translate(-64.4375, -12)" style="" class="label"><rect></rect><foreignObject height="24" width="128.875"><div style="display: table-cell; white-space: nowrap; line-height: 1.5; max-width: 200px; text-align: center;" xmlns="http://www.w3.org/1999/xhtml"><span class="nodeLabel"><p>Modo de autonomia</p></span></div></foreignObject></g></g><g transform="translate(893.0859375, 70)" id="flowchart-porta-30" class="node default"><rect height="54" width="204.421875" y="-27" x="-102.2109375" style="" class="basic label-container"></rect><g transform="translate(-72.2109375, -12)" style="" class="label"><rect></rect><foreignObject height="24" width="144.421875"><div style="display: table-cell; white-space: nowrap; line-height: 1.5; max-width: 200px; text-align: center;" xmlns="http://www.w3.org/1999/xhtml"><span class="nodeLabel"><p>Porta única do modelo</p></span></div></foreignObject></g></g></g></g><g transform="translate(576.0390625, 59)" id="flowchart-evento-0" class="node default"><rect height="102" width="260" y="-51" x="-130" style="" class="basic label-container"></rect><g transform="translate(-100, -36)" style="" class="label"><rect></rect><foreignObject height="72" width="200"><div style="display: table; white-space: break-spaces; line-height: 1.5; max-width: 200px; text-align: center; width: 200px;" xmlns="http://www.w3.org/1999/xhtml"><span class="nodeLabel"><p>Evento chega<br>laudo, documento, mensagem, pedido da equipe</p></span></div></foreignObject></g></g><g transform="translate(576.0390625, 235)" id="flowchart-despachante-1" class="node default"><rect height="150" width="260" y="-75" x="-130" style="" class="basic label-container"></rect><g transform="translate(-100, -60)" style="" class="label"><rect></rect><foreignObject height="120" width="200"><div style="display: table; white-space: break-spaces; line-height: 1.5; max-width: 200px; text-align: center; width: 200px;" xmlns="http://www.w3.org/1999/xhtml"><span class="nodeLabel"><p>Despachante<br>um trabalho por imóvel ou cliente,<br>quem tem gente esperando vai primeiro</p></span></div></foreignObject></g></g><g transform="translate(123.0703125, 575)" id="flowchart-curador-3" class="node default"><rect height="78" width="230.140625" y="-39" x="-115.0703125" style="" class="basic label-container"></rect><g transform="translate(-85.0703125, -24)" style="" class="label"><rect></rect><foreignObject height="48" width="170.140625"><div style="display: table-cell; white-space: nowrap; line-height: 1.5; max-width: 200px; text-align: center;" xmlns="http://www.w3.org/1999/xhtml"><span class="nodeLabel"><p>1 Curador<br>estado operacional e preço</p></span></div></foreignObject></g></g><g transform="translate(397.8828125, 575)" id="flowchart-guardiao-5" class="node default"><rect height="78" width="219.484375" y="-39" x="-109.7421875" style="" class="basic label-container"></rect><g transform="translate(-79.7421875, -24)" style="" class="label"><rect></rect><foreignObject height="48" width="159.484375"><div style="display: table-cell; white-space: nowrap; line-height: 1.5; max-width: 200px; text-align: center;" xmlns="http://www.w3.org/1999/xhtml"><span class="nodeLabel"><p>2 Guardião<br>estado comercial e mídia</p></span></div></foreignObject></g></g><g transform="translate(791.2421875, 423)" id="flowchart-atendimento-7" class="node default"><rect height="78" width="210.140625" y="-39" x="-105.0703125" style="" class="basic label-container"></rect><g transform="translate(-75.0703125, -24)" style="" class="label"><rect></rect><foreignObject height="48" width="150.140625"><div style="display: table-cell; white-space: nowrap; line-height: 1.5; max-width: 200px; text-align: center;" xmlns="http://www.w3.org/1999/xhtml"><span class="nodeLabel"><p>4 Atendimento<br>conversa e qualificação</p></span></div></foreignObject></g></g><g transform="translate(1323.90234375, 575)" id="flowchart-alterador-9" class="node default"><rect height="78" width="132.421875" y="-39" x="-66.2109375" style="" class="basic label-container"></rect><g transform="translate(-36.2109375, -24)" style="" class="label"><rect></rect><foreignObject height="48" width="72.421875"><div style="display: table-cell; white-space: nowrap; line-height: 1.5; max-width: 200px; text-align: center;" xmlns="http://www.w3.org/1999/xhtml"><span class="nodeLabel"><p>6 Alterador<br>cadastro</p></span></div></foreignObject></g></g><g transform="translate(674.6875, 575)" id="flowchart-roteador-11" class="node default"><rect height="78" width="234.125" y="-39" x="-117.0625" style="" class="basic label-container"></rect><g transform="translate(-87.0625, -24)" style="" class="label"><rect></rect><foreignObject height="48" width="174.125"><div style="display: table-cell; white-space: nowrap; line-height: 1.5; max-width: 200px; text-align: center;" xmlns="http://www.w3.org/1999/xhtml"><span class="nodeLabel"><p>3 Roteador<br>corretor e oferta com prazo</p></span></div></foreignObject></g></g><g transform="translate(546.28515625, 811.3984375)" id="flowchart-gate-17" class="node default tinta"><polygon style="fill:#1c1a17 !important;stroke:#1c1a17 !important" transform="translate(-147.3984375,147.3984375)" class="label-container" points="147.3984375,0 294.796875,-147.3984375 147.3984375,-294.796875 0,-147.3984375"></polygon><g transform="translate(-96.3984375, -36)" style="color:#fbfaf8 !important" class="label"><rect></rect><foreignObject height="72" width="192.796875"><div xmlns="http://www.w3.org/1999/xhtml" style="color: rgb(251, 250, 248) !important; display: table-cell; white-space: nowrap; line-height: 1.5; max-width: 200px; text-align: center;"><span class="nodeLabel" style="color:#fbfaf8 !important"><p>Fila de decisões<br>o agente para, a pessoa decide<br>e ele continua</p></span></div></foreignObject></g></g><g transform="translate(980.76171875, 811.3984375)" id="flowchart-banco-18" class="node default"><path transform="translate(-107.5, -67.21323529411765)" style="" class="basic label-container" d="M0,15.808823529411764 a107.5,15.808823529411764 0,0,0 215,0 a107.5,15.808823529411764 0,0,0 -215,0 l0,102.80882352941177 a107.5,15.808823529411764 0,0,0 215,0 l0,-102.80882352941177"></path><g transform="translate(-100, -26)" style="" class="label"><rect></rect><foreignObject height="72" width="200"><div style="display: table; white-space: break-spaces; line-height: 1.5; max-width: 200px; text-align: center; width: 200px;" xmlns="http://www.w3.org/1999/xhtml"><span class="nodeLabel"><p>Banco<br>cada agente escreve só nos próprios campos</p></span></div></foreignObject></g></g><g transform="translate(1006.98046875, 575)" id="flowchart-consulta-25" class="node default leitura"><rect height="78" width="240.375" y="-39" x="-120.1875" style="stroke-dasharray:4 3 !important" class="basic label-container"></rect><g transform="translate(-90.1875, -24)" style="" class="label"><rect></rect><foreignObject height="48" width="180.375"><div style="display: table-cell; white-space: nowrap; line-height: 1.5; max-width: 200px; text-align: center;" xmlns="http://www.w3.org/1999/xhtml"><span class="nodeLabel"><p>5 Consulta<br>só lê, por conexão de leitura</p></span></div></foreignObject></g></g></g></g></g></svg>